<svg version="1.1" id="Livello_1" xmlns="http://www.w3.org/2000/svg" xmlns:xlink="http://www.w3.org/1999/xlink" x="0px" y="0px"
	 width="152px" height="36.405px" viewBox="0 0 152 36.405" enable-background="new 0 0 152 36.405" xml:space="preserve">
<path fill="#1E2853" d="M25.855,19.229c-0.724-0.767-1.742-1.43-2.948-1.945c0.778-0.379,1.526-0.865,2.111-1.486
	c1.398-1.485,2.107-3.275,2.107-5.322c0-3.044-1.08-5.443-3.21-7.132c-2.049-1.624-4.885-2.448-8.431-2.448H1v34.662h14.438
	c3.909,0,7.039-0.881,9.303-2.618c2.356-1.808,3.55-4.363,3.55-7.596C28.291,22.995,27.471,20.937,25.855,19.229z M5.35,4.918
	h10.041c2.469,0,4.363,0.48,5.63,1.425c1.18,0.883,1.753,2.161,1.753,3.907c0,1.609-0.589,2.856-1.802,3.812
	c-1.277,1.009-3.013,1.521-5.161,1.521H5.35V4.918z M21.82,29.882c-1.485,1.098-3.584,1.654-6.241,1.654H5.35V19.603h10.275
	c2.78,0,4.904,0.527,6.311,1.566c1.317,0.974,1.958,2.398,1.958,4.356C23.894,27.424,23.215,28.849,21.82,29.882z"/>
<path fill="#1E2853" d="M45.42,36.239c-9.08,0-13.879-4.943-13.879-14.295V0.897h4.35v20.822c0,3.494,0.816,6.151,2.424,7.901
	c1.605,1.748,3.929,2.598,7.104,2.598c6.501,0,9.528-3.336,9.528-10.499V0.897h4.35v20.822c0,4.635-1.196,8.248-3.556,10.739
	C53.365,34.967,49.892,36.239,45.42,36.239z"/>
<polygon fill="#1E2853" points="89.996,35.565 85.646,35.565 85.646,19.565 66.683,19.565 66.683,35.565 62.333,35.565 
	62.333,0.903 66.683,0.903 66.683,15.589 85.646,15.589 85.646,0.903 89.996,0.903 "/>
<polygon fill="#1E2853" points="117.606,35.574 102.922,18.505 97.289,23.502 97.289,35.559 92.939,35.559 92.939,0.897 
	97.289,0.897 97.289,18.152 116.649,0.913 122.804,0.88 106.127,15.604 123.147,35.546 "/>
<polygon fill="#1E2853" points="150.523,35.565 125.609,35.565 125.609,0.903 150.289,0.903 150.289,4.925 129.96,4.925 
	129.96,15.634 149.076,15.634 149.076,19.609 129.96,19.609 129.96,31.544 150.523,31.544 "/>
</svg>