<svg xmlns="http://www.w3.org/2000/svg" width="76" height="76" viewBox="0 0 76 76">
  <g id="Raggruppa_12" data-name="Raggruppa 12" transform="translate(-834 -3085)">
    <path id="Tracciato_101" data-name="Tracciato 101" d="M82,71.444A10.554,10.554,0,0,1,71.444,82H16.556A10.555,10.555,0,0,1,6,71.444V16.556A10.555,10.555,0,0,1,16.556,6H71.444A10.554,10.554,0,0,1,82,16.556Z" transform="translate(828 3079)" fill="#d0d0d0"/>
    <path id="Tracciato_102" data-name="Tracciato 102" d="M47,38.333h-7.11V65.778H29.333V38.333H23V29.889h6.333V24.8c0-7.406,3.08-11.8,11.805-11.8h7.195v8.444H43.505c-3.4,0-3.616,1.267-3.616,3.637v4.807h8.444Z" transform="translate(846.889 3086.778)" fill="#e2e2e1"/>
  </g>
</svg>
