<svg xmlns="http://www.w3.org/2000/svg" width="76" height="76" viewBox="0 0 76 76">
  <path id="icons8-instagram" d="M24.111,3A21.135,21.135,0,0,0,3,24.111V57.889A21.135,21.135,0,0,0,24.111,79H57.889A21.135,21.135,0,0,0,79,57.889V24.111A21.135,21.135,0,0,0,57.889,3Zm0,8.444H57.889A12.682,12.682,0,0,1,70.556,24.111V57.889A12.682,12.682,0,0,1,57.889,70.556H24.111A12.682,12.682,0,0,1,11.444,57.889V24.111A12.682,12.682,0,0,1,24.111,11.444Zm38,4.222a4.222,4.222,0,1,0,4.222,4.222A4.222,4.222,0,0,0,62.111,15.667ZM41,19.889A21.111,21.111,0,1,0,62.111,41,21.135,21.135,0,0,0,41,19.889Zm0,8.444A12.667,12.667,0,1,1,28.333,41,12.682,12.682,0,0,1,41,28.333Z" transform="translate(-3 -3)" fill="#d0d0d0"/>
</svg>
