<svg xmlns="http://www.w3.org/2000/svg" width="76" height="76" viewBox="0 0 76 76">
  <g id="Raggruppa_13" data-name="Raggruppa 13" transform="translate(-1273 -2994)">
    <path id="Tracciato_103" data-name="Tracciato 103" d="M82,71.444A10.554,10.554,0,0,1,71.444,82H16.556A10.555,10.555,0,0,1,6,71.444V16.556A10.555,10.555,0,0,1,16.556,6H71.444A10.554,10.554,0,0,1,82,16.556Z" transform="translate(1267 2988)" fill="#d0d0d0"/>
    <path id="icons8-linkedin" d="M23.179,17c-3.618,0-5.789,2.175-5.789,5.072s2.171,5.063,5.426,5.063c3.618,0,5.789-2.167,5.789-5.063S26.435,17,23.179,17Zm-5.5,15.553V62.111H28.333V32.556Zm19.445,0V62.111H47.779V45.956c0-4.809,3.431-5.5,4.461-5.5s3.785,1.033,3.785,5.5V62.111H66.333V45.956c0-9.276-4.122-13.4-9.277-13.4s-7.905,1.717-9.277,4.123V32.556Z" transform="translate(1270 2991)" fill="#e2e2e1"/>
  </g>
</svg>
