<svg xmlns="http://www.w3.org/2000/svg" id="Livello_1" data-name="Livello 1" viewBox="0 0 597 218"><defs><style>.cls-1{fill:#adaba9;}.cls-2,.cls-6{fill:#048;}.cls-3,.cls-7{fill:#0086cd;}.cls-4{fill:#575453;}.cls-5,.cls-8{fill:#009640;}.cls-6,.cls-7,.cls-8{fill-rule:evenodd;}</style></defs><title>a&amp;amp;glogo</title><path class="cls-1" d="M52.13,68.55a9.33,9.33,0,0,1-.34-1.72A11.23,11.23,0,0,1,51.56,65V31.71H84.84a29.43,29.43,0,0,1,18.82,9,29.43,29.43,0,0,1,9,20.66l.11,31.56H81.86a20.29,20.29,0,0,1-3.79-.34,29.67,29.67,0,0,1-17.68-8.61A30.31,30.31,0,0,1,52.13,68.55ZM34.57,71.42a46,46,0,0,0,13.08,24c7.92,7.81,17.1,12.4,27.78,13.55a44.46,44.46,0,0,0,5.62.34h48.32l-.11-49.24a45.53,45.53,0,0,0-14-32.26,45.7,45.7,0,0,0-29.5-13.89c-.92,0-1.84-.12-2.75-.12l-49.35-.11.11,52.11c.11,1,.23,1.84.34,2.76A21.1,21.1,0,0,0,34.57,71.42Z"/><circle class="cls-1" cx="103.21" cy="57" r="2.58" transform="translate(37.3 154.75) rotate(-84.92)"/><circle class="cls-1" cx="108.83" cy="44.89" r="3.1" transform="translate(54.54 149.35) rotate(-84.95)"/><circle class="cls-1" cx="102.74" cy="54.75" r="1.38" transform="translate(39.09 152.23) rotate(-84.91)"/><circle class="cls-1" cx="110.11" cy="30.48" r="1.89" transform="translate(70.05 137.48) rotate(-84.94)"/><circle class="cls-1" cx="116.4" cy="56.17" r="2.46" transform="translate(50.15 167.14) rotate(-84.92)"/><circle class="cls-1" cx="100.9" cy="36.67" r="3.03" transform="translate(55.49 133.96) rotate(-84.95)"/><circle class="cls-1" cx="91.11" cy="44.37" r="1.1" transform="translate(38.88 131.21) rotate(-84.95)"/><circle class="cls-1" cx="97.53" cy="43.56" r="1.93" transform="translate(45.53 136.86) rotate(-84.94)"/><circle class="cls-1" cx="97.51" cy="34.44" r="1.1" transform="translate(54.61 128.53) rotate(-84.94)"/><circle class="cls-1" cx="105.77" cy="28.54" r="1.1" transform="translate(67.95 131.36) rotate(-84.91)"/><circle class="cls-1" cx="118.32" cy="35.65" r="1.18" transform="translate(72.37 150.37) rotate(-84.94)"/><circle class="cls-1" cx="106.94" cy="62.67" r="2.42" transform="translate(35.06 163.66) rotate(-84.93)"/><circle class="cls-1" cx="113.84" cy="52.74" r="3.03" transform="translate(51.26 161.48) rotate(-84.93)"/><circle class="cls-1" cx="114.12" cy="62.07" r="3.3" transform="translate(42.23 170.27) rotate(-84.94)"/><circle class="cls-1" cx="99.16" cy="59.45" r="1.1" transform="translate(31.22 152.99) rotate(-84.95)"/><circle class="cls-1" cx="89.37" cy="67.14" r="1.38" transform="translate(14.62 150.25) rotate(-84.95)"/><circle class="cls-1" cx="111.88" cy="54.63" r="3.16" transform="translate(47.6 161.26) rotate(-84.94)"/><circle class="cls-1" cx="117.85" cy="41.77" r="1.65" transform="translate(65.84 155.47) rotate(-84.93)"/><circle class="cls-1" cx="112.27" cy="64.2" r="1.38" transform="translate(38.41 170.36) rotate(-84.93)"/><circle class="cls-1" cx="105.1" cy="51.33" r="4.54" transform="translate(44.7 151.49) rotate(-84.94)"/><circle class="cls-1" cx="94.88" cy="48.57" r="1.38" transform="translate(38.13 138.8) rotate(-84.94)"/><circle class="cls-1" cx="94.68" cy="31.66" r="0.87" transform="translate(54.77 123.17) rotate(-84.93)"/><circle class="cls-1" cx="123.92" cy="57.5" r="0.83" transform="translate(55.75 175.88) rotate(-84.96)"/><circle class="cls-1" cx="121.45" cy="69.71" r="0.55" transform="translate(41.25 184.5) rotate(-84.91)"/><circle class="cls-1" cx="120.23" cy="45.8" r="0.83" transform="translate(64.03 161.54) rotate(-84.96)"/><circle class="cls-1" cx="118.31" cy="48.63" r="2.48" transform="translate(59.44 162.19) rotate(-84.94)"/><circle class="cls-1" cx="84.13" cy="63.91" r="1.38" transform="translate(13.04 142.08) rotate(-84.94)"/><circle class="cls-1" cx="75.78" cy="61.8" r="0.55" transform="translate(7.59 131.9) rotate(-84.99)"/><circle class="cls-1" cx="91.29" cy="57.92" r="0.82" transform="translate(25.54 143.74) rotate(-84.94)"/><circle class="cls-1" cx="90.09" cy="37.1" r="0.55" transform="matrix(0.09, -1, 1, 0.09, 45.21, 123.57)"/><circle class="cls-1" cx="99.07" cy="47.25" r="3.3" transform="translate(43.28 141.77) rotate(-84.95)"/><circle class="cls-1" cx="100.58" cy="68.41" r="1.1" transform="translate(23.57 162.57) rotate(-84.95)"/><circle class="cls-1" cx="115.05" cy="45.39" r="1.38" transform="translate(59.69 155.98) rotate(-84.94)"/><circle class="cls-1" cx="114.56" cy="19.66" r="0.82" transform="translate(84.81 132.02) rotate(-84.9)"/><circle class="cls-1" cx="108.65" cy="36.53" r="1.38" transform="translate(62.68 141.54) rotate(-84.94)"/><circle class="cls-1" cx="86.92" cy="52.44" r="2.05" transform="translate(27.03 134.4) rotate(-84.95)"/><circle class="cls-1" cx="122.94" cy="52.3" r="1.1" transform="translate(59.94 170.13) rotate(-84.91)"/><circle class="cls-1" cx="130.72" cy="65.52" r="0.83" transform="translate(53.96 189.97) rotate(-84.96)"/><circle class="cls-1" cx="112.74" cy="71.42" r="0.83" transform="translate(31.7 177.46) rotate(-84.97)"/><circle class="cls-1" cx="103.53" cy="75.58" r="1.93" transform="translate(19.1 172.03) rotate(-84.93)"/><circle class="cls-1" cx="96.51" cy="76.89" r="0.55" transform="translate(11.37 166.21) rotate(-84.92)"/><circle class="cls-1" cx="95.38" cy="70.99" r="0.82" transform="matrix(0.09, -1, 1, 0.09, 16.19, 159.67)"/><circle class="cls-1" cx="97.48" cy="65.93" r="0.55" transform="translate(23.29 157.27) rotate(-84.99)"/><circle class="cls-1" cx="103.6" cy="53.95" r="1.1" transform="translate(-7.66 18.38) rotate(-9.78)"/><circle class="cls-1" cx="109.77" cy="49.26" r="1.93" transform="translate(-6.78 19.41) rotate(-9.8)"/><circle class="cls-1" cx="112.84" cy="55.71" r="0.55" transform="translate(-7.84 20.02) rotate(-9.8)"/><circle class="cls-1" cx="107.43" cy="58.32" r="0.83" transform="translate(-8.33 19.06) rotate(-9.76)"/><circle class="cls-1" cx="111.4" cy="44.97" r="0.83" transform="translate(56.72 151.94) rotate(-84.91)"/><circle class="cls-1" cx="108.94" cy="57.18" r="0.55" transform="translate(42.43 160.69) rotate(-84.97)"/><circle class="cls-1" cx="114.3" cy="49.65" r="0.82" transform="translate(54.78 159.13) rotate(-84.95)"/><circle class="cls-1" cx="92.2" cy="57.37" r="1.1" transform="translate(-8.41 16.49) rotate(-9.78)"/><circle class="cls-1" cx="98.37" cy="52.68" r="1.93" transform="translate(-7.53 17.5) rotate(-9.8)"/><circle class="cls-1" cx="101.43" cy="59.13" r="0.55" transform="translate(-8.67 18.35) rotate(-9.92)"/><circle class="cls-1" cx="96.02" cy="61.74" r="0.83" transform="translate(-9.05 17.11) rotate(-9.73)"/><circle class="cls-1" cx="96.55" cy="40.11" r="0.82" transform="translate(48.09 132.75) rotate(-84.95)"/><circle class="cls-1" cx="104.41" cy="48.86" r="1.1" transform="translate(6.55 109.8) rotate(-56.99)"/><circle class="cls-1" cx="98.34" cy="54.34" r="1.1" transform="translate(-7.8 17.49) rotate(-9.78)"/><circle class="cls-1" cx="104.51" cy="49.65" r="1.93" transform="translate(-6.91 18.47) rotate(-9.78)"/><circle class="cls-1" cx="107.58" cy="56.1" r="0.55" transform="translate(-8.01 19.22) rotate(-9.85)"/><circle class="cls-1" cx="102.16" cy="58.71" r="0.83" transform="matrix(0.99, -0.17, 0.17, 0.99, -8.46, 18.13)"/><circle class="cls-1" cx="117.15" cy="73.82" r="1.38" transform="translate(-20.56 88.35) rotate(-38.24)"/><circle class="cls-1" cx="111.12" cy="75.07" r="1.38" transform="translate(-22.62 84.8) rotate(-38.2)"/><circle class="cls-1" cx="112.23" cy="65.79" r="0.83" transform="translate(-16.65 83.51) rotate(-38.21)"/><circle class="cls-1" cx="105.18" cy="65.74" r="1.38" transform="translate(-18.13 79.13) rotate(-38.21)"/><circle class="cls-1" cx="124.16" cy="72.5" r="0.83" transform="translate(-18.25 92.29) rotate(-38.19)"/><circle class="cls-1" cx="113.11" cy="65.06" r="1.23" transform="translate(-6.86 116.38) rotate(-53.07)"/><circle class="cls-1" cx="114.54" cy="56.51" r="2.15" transform="translate(0.53 114.08) rotate(-53.06)"/><circle class="cls-1" cx="121.98" cy="59.41" r="0.62" transform="translate(1.1 121.02) rotate(-52.98)"/><circle class="cls-1" cx="119.57" cy="65.68" r="0.92" transform="translate(-4.89 121.55) rotate(-52.96)"/><circle class="cls-1" cx="100.21" cy="61.95" r="1.65" transform="translate(29.65 156.3) rotate(-84.94)"/><circle class="cls-1" cx="116.19" cy="38.36" r="2.43" transform="translate(23.37 118.08) rotate(-58.93)"/><circle class="cls-1" cx="133.94" cy="42.06" r="1.38" transform="translate(28.72 134.99) rotate(-58.88)"/><circle class="cls-1" cx="112.07" cy="34.65" r="1.38" transform="translate(24.49 112.68) rotate(-58.88)"/><circle class="cls-1" cx="106.24" cy="25.67" r="0.55" transform="translate(29.36 103.35) rotate(-58.88)"/><circle class="cls-1" cx="126.51" cy="46.45" r="1.37" transform="translate(21.39 130.79) rotate(-58.9)"/><circle class="cls-1" cx="124.43" cy="35.99" r="1.1" transform="translate(29.37 123.98) rotate(-58.92)"/><circle class="cls-1" cx="114.82" cy="27.95" r="0.83" transform="translate(31.55 111.8) rotate(-58.88)"/><circle class="cls-1" cx="124.91" cy="28.26" r="1.93" transform="translate(36.18 120.6) rotate(-58.89)"/><circle class="cls-1" cx="131.8" cy="30.16" r="0.55" transform="matrix(0.52, -0.86, 0.86, 0.52, 37.89, 127.43)"/><circle class="cls-1" cx="130.23" cy="35.96" r="0.82" transform="translate(32.13 128.86) rotate(-58.88)"/><circle class="cls-1" cx="126.12" cy="39.59" r="0.55" transform="matrix(0.52, -0.86, 0.86, 0.52, 27.16, 127.22)"/><circle class="cls-1" cx="111.91" cy="23.86" r="1.38" transform="translate(-2.51 24.2) rotate(-12.2)"/><circle class="cls-1" cx="117.87" cy="25.39" r="1.38" transform="translate(-2.7 25.39) rotate(-12.15)"/><circle class="cls-1" cx="112.81" cy="33.24" r="0.83" transform="translate(-4.47 24.57) rotate(-12.19)"/><circle class="cls-1" cx="119.12" cy="36.38" r="1.38" transform="translate(-4.99 25.94) rotate(-12.18)"/><circle class="cls-1" cx="111.69" cy="33.51" r="1.23" transform="translate(-3.02 54.44) rotate(-27.04)"/><circle class="cls-1" cx="106.66" cy="40.56" r="2.15" transform="translate(-6.78 52.9) rotate(-27.03)"/><circle class="cls-1" cx="101.25" cy="34.69" r="0.62" transform="translate(-4.71 49.79) rotate(-27.02)"/><circle class="cls-1" cx="106.16" cy="30.11" r="0.92" transform="translate(-2.1 51.49) rotate(-27.01)"/><circle class="cls-1" cx="115.19" cy="13.09" r="0.69" transform="translate(-0.55 19.78) rotate(-9.79)"/><circle class="cls-1" cx="119.05" cy="10.15" r="1.21" transform="translate(0 20.32) rotate(-9.76)"/><circle class="cls-1" cx="120.97" cy="14.19" r="0.34" transform="translate(-0.65 20.77) rotate(-9.79)"/><circle class="cls-1" cx="117.58" cy="15.83" r="0.52" transform="translate(-0.98 20.27) rotate(-9.81)"/><circle class="cls-1" cx="89.37" cy="69.96" r="0.63" transform="translate(7.7 148.77) rotate(-82.03)"/><circle class="cls-1" cx="93.58" cy="68.47" r="1.11" transform="translate(12.84 151.69) rotate(-82.06)"/><circle class="cls-1" cx="94.13" cy="72.55" r="0.32" transform="matrix(0.14, -0.99, 0.99, 0.14, 9.25, 155.73)"/><circle class="cls-1" cx="90.7" cy="73.03" r="0.48" transform="translate(5.73 152.66) rotate(-81.98)"/><path class="cls-1" d="M98,33.43l-34,34A24.32,24.32,0,0,0,66.48,69l33-33A24.68,24.68,0,0,0,98,33.43Zm2.83,5.47L69.42,70.28a24.35,24.35,0,0,0,3.14.91L101.71,42A24.13,24.13,0,0,0,100.8,38.9ZM89.1,25.59l-33,33a24.55,24.55,0,0,0,1.52,2.53l34-34A24.63,24.63,0,0,0,89.1,25.59Zm11.74,30L86.11,70.31A24.53,24.53,0,0,0,100.84,55.59ZM94.12,29.06,59.58,63.6a24.83,24.83,0,0,0,2,2L96.14,31.09A24.5,24.5,0,0,0,94.12,29.06Zm8.1,16.65-26,26c.53,0,1.06.06,1.59.06a24.77,24.77,0,0,0,2.53-.13l21.81-21.81a24.82,24.82,0,0,0,.13-2.53C102.28,46.76,102.26,46.23,102.23,45.7ZM77.82,22.83c-.82,0-1.64,0-2.44.12L53.48,44.86c-.08.8-.12,1.61-.12,2.44,0,.56,0,1.12.06,1.67L79.49,22.89C78.94,22.86,78.38,22.83,77.82,22.83Zm-23.2,16.7L70.06,24.09A24.52,24.52,0,0,0,54.62,39.53ZM83.06,23.4,53.92,52.53a24.23,24.23,0,0,0,.91,3.14L86.2,24.3A24.22,24.22,0,0,0,83.06,23.4Z"/><path class="cls-2" d="M164.15,51.27a23.38,23.38,0,0,0-15.51,7.3,24.1,24.1,0,0,0-7.41,17.11l-.11,25.9h25.55a23.82,23.82,0,0,0,3-.11,24.36,24.36,0,0,0,14.72-7.19,23.94,23.94,0,0,0,6.84-12.66,6.59,6.59,0,0,0,.23-1.48,6.75,6.75,0,0,0,.23-1.49V51.15h-26A7,7,0,0,0,164.15,51.27ZM168.72,35h2.17l38-.11L208.76,75a15.64,15.64,0,0,1-.23,2.17c-.11.8-.23,1.37-.34,2.17a36.66,36.66,0,0,1-10,18.37,36,36,0,0,1-21.33,10.61c-1.49.11-2.85.11-4.45.23H135.18l.11-38a34.92,34.92,0,0,1,10.83-24.87A35.16,35.16,0,0,1,168.72,35Z"/><path class="cls-1" d="M95.91,69.43v3.22h-3.2a2.23,2.23,0,0,0-1.18.31,2.06,2.06,0,0,0-.61.44,2.49,2.49,0,0,0-.77,1.82A2.41,2.41,0,0,0,90.92,77a1.62,1.62,0,0,0,.2.2,2.39,2.39,0,0,0,1.59.54h3.2v3.17a2.58,2.58,0,0,0,2.56,2.56A2.62,2.62,0,0,0,101,80.94V77.77h3.2A2.53,2.53,0,0,0,106,77a2.49,2.49,0,0,0,.74-1.82A2.57,2.57,0,0,0,106,73.4a2.53,2.53,0,0,0-1.82-.74H101V69.43a2.51,2.51,0,0,0-.77-1.84,2.44,2.44,0,0,0-1.79-.72,2.51,2.51,0,0,0-1.82.72A2.59,2.59,0,0,0,95.91,69.43Z"/><path class="cls-3" d="M117.43,6.37a5.7,5.7,0,0,0-4.3,1.48,8.73,8.73,0,0,0-2.51,4.72l-1.58,7,6.51-.75.79-.12a9.21,9.21,0,0,0,4.67-1.9,5.74,5.74,0,0,0,2-4v-.1a5.7,5.7,0,0,0-1.48-4.3A5.7,5.7,0,0,0,117.43,6.37Z"/><polygon class="cls-3" points="32.68 63.62 6.8 87.03 31.07 87.03 56.09 63.62 31.07 41.58 6.8 41.58 32.68 63.62"/><circle class="cls-4" cx="54.78" cy="86.2" r="1.79" transform="translate(-44.91 64.01) rotate(-45.02)"/><circle class="cls-4" cx="59.77" cy="81.21" r="1.79" transform="translate(-39.91 66.02) rotate(-44.98)"/><circle class="cls-4" cx="59.77" cy="91.19" r="1.79" transform="translate(-46.97 68.97) rotate(-45)"/><circle class="cls-4" cx="64.76" cy="86.2" r="1.79" transform="translate(-41.98 71.04) rotate(-45)"/><circle class="cls-4" cx="64.76" cy="96.18" r="1.79" transform="translate(-49.04 73.96) rotate(-45)"/><circle class="cls-4" cx="69.75" cy="91.19" r="1.79" transform="translate(-44.04 75.99) rotate(-44.98)"/><circle class="cls-4" cx="64.67" cy="76.31" r="1.79" transform="translate(-35.02 68.09) rotate(-45.01)"/><circle class="cls-4" cx="64.67" cy="86.29" r="1.79" transform="translate(-42.07 70.95) rotate(-44.97)"/><circle class="cls-4" cx="69.66" cy="81.3" r="1.79" transform="translate(-37.08 73.07) rotate(-45)"/><circle class="cls-4" cx="69.66" cy="91.28" r="1.79" transform="translate(-44.14 75.97) rotate(-44.99)"/><circle class="cls-4" cx="74.65" cy="86.29" r="1.79" transform="translate(-39.15 78.02) rotate(-44.98)"/><path class="cls-5" d="M212.7,156.78a9.32,9.32,0,0,1,.34,1.72,11.21,11.21,0,0,1,.23,1.84v33.29H180A30.86,30.86,0,0,1,152.21,164l-.11-31.56H183a20.27,20.27,0,0,1,3.79.34,29.67,29.67,0,0,1,17.68,8.61A30.31,30.31,0,0,1,212.7,156.78Zm17.56-2.87a46,46,0,0,0-13.08-24c-7.92-7.81-17.1-12.4-27.78-13.55a44.46,44.46,0,0,0-5.62-.34H135.45l.11,49.24a48,48,0,0,0,43.5,46.14c.92,0,1.84.12,2.75.12l49.35.11-.11-52.11c-.11-1-.23-1.84-.34-2.76A21.1,21.1,0,0,0,230.26,153.91Z"/><path class="cls-2" d="M98.58,172.87a23.38,23.38,0,0,0,15.51-7.3,24.11,24.11,0,0,0,7.41-17.11l.11-25.9H96.06a23.79,23.79,0,0,0-3,.11,24.36,24.36,0,0,0-14.72,7.19,23.94,23.94,0,0,0-6.84,12.66,6.59,6.59,0,0,0-.23,1.48,6.74,6.74,0,0,0-.23,1.49V173h26A7,7,0,0,0,98.58,172.87ZM94,189.18H91.84l-38,.11L54,149.14A15.65,15.65,0,0,1,54.2,147c.11-.8.23-1.37.34-2.17a36.66,36.66,0,0,1,10-18.37,36,36,0,0,1,21.33-10.61c1.49-.11,2.85-.11,4.45-.23h37.19l-.11,38a34.93,34.93,0,0,1-10.83,24.87A35.16,35.16,0,0,1,94,189.18Z"/><path class="cls-6" d="M318.44,79.15l-33.36-56-32.93,56Zm5.44,9.59H246.7l-12.17,21.48h-13.6l56.41-95.51h15.46l56.85,95.51H336.34Z"/><path class="cls-7" d="M377.73,68.22q-9.67,1.19-12.65,5T362.22,87q0,7.28,2.51,10.74t10.14,4.42l5.73.48c1.91.08,4.71.26,6.69.34s8.7.14,10.61.14q6.32,0,12.65-.12t12.65-1.07c.16,0,4.38-.72,6-1.19a8.92,8.92,0,0,0,4.18-3.22ZM438.35,54H428.2V50.56q0-7-3.22-9.07t-9.78-2.27l-16.71-.6c-1.41,0-2.12,0-4.18,0-.72,0-6.78.06-8.34.06a38.89,38.89,0,0,0-4.31.3,13.36,13.36,0,0,0-7.16,2.51Q372,43.4,372,48.41A10.57,10.57,0,0,0,374.75,56a25.91,25.91,0,0,0,6.8,4.77l54.77,28.4q.12-1,.24-1.91a19.35,19.35,0,0,0,.12-2.15,18.28,18.28,0,0,0,.12-2V76.81a38.57,38.57,0,0,0-.24-4.3l10.26-.12v1.43a6.8,6.8,0,0,1,.12,1.31v.6a2,2,0,0,1,.12.6v2a15.62,15.62,0,0,1,.12,1.91,67.25,67.25,0,0,1-.36,6.92,39.78,39.78,0,0,1-1.31,6.8l17.18,8.71-4.06,8-16-8.23a14.37,14.37,0,0,1-7.76,6.21,37.3,37.3,0,0,1-9.78,1.79c-.8.08-9.94.6-12.17.6h-15q-5.85,0-11.69-.12t-11.45-.48q-10.86-.48-16.83-6.08t-6-16.94Q352,75,355.53,70t16-6.56a14.14,14.14,0,0,1-7.16-5.61,17.8,17.8,0,0,1-2.15-9.07q0-12.65,7.64-15.63a49.06,49.06,0,0,1,17.9-3c.88,0,4.42-.12,5.37-.12s19.37.2,21.12.36,3.62.2,5.37.36c.32,0,1.43.12,1.67.12a29.76,29.76,0,0,1,7.4,1.91,13.84,13.84,0,0,1,6.08,4.41,11.08,11.08,0,0,1,2.63,5.61,50.86,50.86,0,0,1,.6,6.08v.24q0,1.31.12,2.63t.24,2.39Z"/><path class="cls-6" d="M578,72.7H527.91V63.11h62.15V65.4a14,14,0,0,1,.14,2v4.3q0,20.19-5.73,29.78t-29.64,9.59s-30.11.29-31.79.29h-8.3q-26.63,0-35.65-7.87t-9-35.08V63q0-24.77,5.58-36.66t32.93-12s28.87-.44,29.93-.43c15.63.17,23.25.52,24.77.71q14.17,1,19.62,7.73t5.73,20.48l-11.46-.14q0-13.32-6.16-15.61T553.4,24.31L532.64,24h-16q-2.29,0-4.58.14l-4.73.29a40.22,40.22,0,0,0-4.73.29c-.19,0-1.1.14-1.29.14a31.72,31.72,0,0,0-12.89,3.58q-4.87,2.72-5.73,16.18-.14,3-.29,6.16T482.23,57q-.14,3.15-.14,6.3v6q0,17.47,3.15,24.49t22.19,7.16s28.64.26,29.5.29c1.67,0,12.17.09,13.6,0l4.15-.29,4.3-.29q13.46-1.43,15.89-7.3t3-16.18v-2a18.3,18.3,0,0,0,.14-2.29Z"/><polygon class="cls-8" points="280.21 150.19 280.21 128.75 277.25 128.75 266.3 143.05 255.37 128.75 252.38 128.75 252.38 150.19 254.3 150.19 254.3 130.61 254.39 130.61 266.3 145.89 278.17 130.61 278.29 130.61 278.29 150.19 280.21 150.19"/><path class="cls-8" d="M312.66,143.49V128.75h-1.92v14c0,4.09-3.14,6.19-9.36,6.19s-9.42-2.1-9.42-6.19v-14H290v14.75c0,4.23,4.35,7.31,11.34,7.31S312.66,147.76,312.66,143.49Z"/><polygon class="cls-8" points="340.95 150.19 340.95 148.32 324.4 148.32 324.4 128.75 322.48 128.75 322.48 150.19 340.95 150.19"/><polygon class="cls-8" points="366.02 130.61 366.02 128.75 343.61 128.75 343.61 130.61 353.85 130.61 353.85 150.19 355.78 150.19 355.78 130.61 366.02 130.61"/><rect class="cls-5" x="372.26" y="128.75" width="1.92" height="21.44"/><path class="cls-8" d="M402.51,132.15l1.36-1.48c-2.52-1.69-6-2.46-10.39-2.46-6.69,0-10.36,2.34-10.36,6.19a4.23,4.23,0,0,0,3.14,4.29c2,.74,4.68.86,8.26,1,5.86.27,8.71,1.15,8.71,4.2s-3.23,5-9.21,5a18.32,18.32,0,0,1-10.25-3l-1.12,1.63c3,2.07,7,3.17,11.79,3.17,7.17,0,11-2.58,11-6.9a4.74,4.74,0,0,0-3.14-4.77c-2.13-.92-5.06-1-8.79-1.15-5.42-.24-8.17-.95-8.17-3.7s2.87-4.15,8.23-4.15A17.87,17.87,0,0,1,402.51,132.15Z"/><polygon class="cls-8" points="434.75 150.19 434.75 148.32 415.85 148.32 415.85 139.76 428.41 139.76 428.41 137.9 415.85 137.9 415.85 130.61 433.92 130.61 433.92 128.75 413.93 128.75 413.93 150.19 434.75 150.19"/><path class="cls-8" d="M458.1,139.53H444v-8.91h13.38c3.46,0,5.18,1.45,5.18,4.44S460.94,139.53,458.1,139.53Zm6.66,10.66-6.51-8.79c4.15-.3,6.46-2.58,6.46-6.25,0-3.91-2.49-6.4-6.46-6.4H442.08v21.44H444v-8.79h11.7l6.72,8.79Z"/><polygon class="cls-8" points="494.13 128.75 491.87 128.75 481.98 148.62 472.06 128.75 469.81 128.75 480.5 150.19 483.44 150.19 494.13 128.75"/><rect class="cls-5" x="500.36" y="128.75" width="1.92" height="21.44"/><path class="cls-8" d="M534.85,132.83c-2.37-3.05-6.25-4.77-11.1-4.77a14,14,0,0,0-8.91,2.93,10.94,10.94,0,0,0,1.84,18.09,15.44,15.44,0,0,0,7.34,1.69c4.92,0,8.62-1.57,10.72-4.35l-1.6-1c-2.13,2.46-5.18,3.55-9.39,3.55-6.48,0-10.84-3.88-10.84-9.53a8.74,8.74,0,0,1,3.46-7.17,12,12,0,0,1,7.37-2.37c4,0,7,1.13,9.39,3.64Z"/><polygon class="cls-8" points="564.09 150.19 564.09 148.32 545.2 148.32 545.2 139.76 557.75 139.76 557.75 137.9 545.2 137.9 545.2 130.61 563.26 130.61 563.26 128.75 543.27 128.75 543.27 150.19 564.09 150.19"/><path class="cls-8" d="M573.26,133h-.71v-1.42h.65c.71,0,1,.21,1,.71S573.91,133,573.26,133Zm2.13,2.72-1.1-2.19c.74-.27,1.07-.68,1.07-1.3,0-.92-.71-1.45-2.1-1.45h-1.75v4.95h1v-2h.71l.95,2Zm1.81-2.49a3.88,3.88,0,1,1-7.76,0,3.88,3.88,0,0,1,7.76,0Zm.68,0a4.47,4.47,0,0,0-4.59-4.53,4.55,4.55,0,0,0-.09,9.09A4.61,4.61,0,0,0,577.88,133.28Z"/></svg>