<?xml version="1.0" encoding="utf-8"?>
<!-- Generator: Adobe Illustrator 24.1.0, SVG Export Plug-In . SVG Version: 6.00 Build 0)  -->
<svg version="1.1" id="Livello_1" xmlns="http://www.w3.org/2000/svg" xmlns:xlink="http://www.w3.org/1999/xlink" x="0px" y="0px"
	 viewBox="0 0 356.8 104.5" style="enable-background:new 0 0 356.8 104.5;" xml:space="preserve">
<style type="text/css">
	.st0{fill:#25B1DC;}
	.st1{fill:#494444;}
</style>
<g>
	<g>
		<path class="st0" d="M39,78.4c2.6,1.5,5.7,2.5,8.6,2.5c2.9,0,6-1,8.6-2.5c-2.6-1.5-5.6-2.3-8.6-2.3C44.6,76.1,41.6,76.9,39,78.4"
			/>
		<path class="st0" d="M47.5,66.5c5.5,0,10.6,2.3,14.3,6.1c0.8-1.8,0.8-3.6,0.1-5.4c-1.5-3.6-10.1-11-14.3-14.4l0,0l0,0
			c-4.2,3.4-12.8,10.8-14.3,14.4c-0.7,1.7-0.7,3.5,0.1,5.3C37,68.8,42.1,66.5,47.5,66.5"/>
		<path class="st0" d="M56.6,37.2c0.5-1.4,0.3-2.9-0.8-4.3c-1.7-2.4-5.2-4.1-8.3-4.1c-3.1,0-6.6,1.7-8.3,4.1c-1,1.4-1.3,2.9-0.7,4.3
			c0.9,2.6,6.1,8.3,9,11.3C50.5,45.4,55.7,39.7,56.6,37.2"/>
		<path class="st0" d="M47.6,73.5c3.9,0,7.7,1.2,10.9,3.3c0.7-0.6,1.3-1.2,1.9-1.9c-3.2-3.6-7.9-5.8-12.9-5.8
			c-4.9,0-9.6,2.1-12.8,5.7c0.6,0.7,1.2,1.4,2,2C39.9,74.7,43.7,73.5,47.6,73.5"/>
		<path class="st0" d="M25.8,42.7c-3.1,0-5.7,4.2-5.7,7.6c0,3.4,2.6,7.6,5.7,7.6c0.4,0,0.7-0.1,1.1-0.2c2.3-0.7,7.3-4.9,10.2-7.4
			c-2.9-2.5-7.9-6.7-10.2-7.4C26.6,42.7,26.2,42.7,25.8,42.7"/>
		<path class="st0" d="M87.1,20C86.4,19.5,56.4,2.3,56.4,2.3v0C53.8,0.8,50.8,0,47.6,0c-3.5,0-6.8,1-9.5,2.7v0
			c0,0-29.4,16.9-30.5,17.6C3.1,23.2,0,27.4,0,33.1v38.1c0,5.3,3,10,7.3,12.6c1.3,0.8,27.7,16.5,29.5,17.4c5.7,3,10.7,5.3,20.2,0.7
			c1.2-0.6,29.3-17.1,30.2-17.7c4.9-3.2,7.7-8.6,7.9-14.7V34.8C95,28.7,91.8,23.2,87.1,20 M53.2,17.6c1.3,0,2.3,1,2.3,2.3
			c0,1.3-1,2.3-2.3,2.3c-1.3,0-2.3-1-2.3-2.3C51,18.6,52,17.6,53.2,17.6 M41.9,17.6c1.3,0,2.3,1,2.3,2.3c0,1.3-1,2.3-2.3,2.3
			c-1.3,0-2.3-1-2.3-2.3C39.7,18.6,40.7,17.6,41.9,17.6 M25.8,61c-2.3,0-4.7-1.3-6.4-3.6c-1.6-2.1-2.5-4.7-2.5-7.2
			c0-2.5,0.9-5.1,2.5-7.2c1.7-2.3,4.1-3.6,6.4-3.6c0.7,0,1.4,0.1,2.1,0.3c3.8,1.2,11.7,8.4,12.6,9.2c0.3,0.3,0.5,0.7,0.5,1.2
			c0,0.4-0.2,0.9-0.5,1.2c-0.9,0.8-8.8,8-12.6,9.2C27.2,60.9,26.5,61,25.8,61 M63.6,75.8c-2.8,4.2-8.3,7.4-13.8,8.1
			c-1.1,0.3-1.7,2.1-1.9,2.9c0,0.2-0.2,0.4-0.4,0.4c-0.2,0-0.4-0.2-0.4-0.4c-0.1-0.8-0.8-2.7-1.8-2.9c-5.5-0.7-11-3.9-13.8-8.1
			c-2.1-3.1-2.5-6.6-1.2-9.7c1.9-4.6,11.4-12.5,15-15.4c-2.6-2.7-8.5-9-9.8-12.4c-0.8-2.4-0.4-4.9,1.1-7.2c2.3-3.2,6.7-5.4,10.8-5.4
			c4.1,0,8.6,2.2,10.8,5.4c1.6,2.2,2,4.8,1.1,7.2c-1.2,3.4-7.2,9.8-9.8,12.4c3.6,2.9,13.1,10.8,15,15.4
			C66.1,69.2,65.7,72.7,63.6,75.8 M75.7,57.4C74,59.7,71.7,61,69.3,61c-0.7,0-1.4-0.1-2.1-0.3c-3.8-1.2-11.7-8.4-12.6-9.2
			c-0.3-0.3-0.5-0.7-0.5-1.2c0-0.4,0.2-0.9,0.5-1.2c0.9-0.8,8.8-8,12.6-9.2c0.7-0.2,1.4-0.3,2.1-0.3c2.3,0,4.7,1.3,6.4,3.6
			c1.6,2.1,2.5,4.7,2.5,7.2C78.2,52.7,77.3,55.3,75.7,57.4"/>
		<path class="st0" d="M69.3,42.7c-0.4,0-0.7,0.1-1.1,0.2c-2.3,0.7-7.3,4.9-10.2,7.4c2.9,2.5,7.9,6.7,10.2,7.4
			c0.4,0.1,0.7,0.2,1.1,0.2c1.3,0,2.8-0.9,3.9-2.3c1.1-1.5,1.8-3.5,1.8-5.3C75.1,46.8,72.4,42.7,69.3,42.7"/>
	</g>
	<g>
		<path class="st1" d="M114.5,43.4h2.2v4.5c0,1.2-0.2,2.1-0.2,2.1h0.1c1.3-3.9,5.9-7.2,9.9-7.2c5.1,0,7.6,2.4,8.1,7h0.1
			c1.4-3.6,5.3-7,9.8-7c6.6,0,8.6,3.9,8.6,10v16.3h-2.2V53.6c0-4.8-1-8.8-6.4-8.8c-4.3,0-7.9,3.8-9,7.8c-0.4,1.2-0.5,2.5-0.5,4v12.5
			h-2.2V53.6c0-4.4-0.6-8.8-6.3-8.8c-4.6,0-8.2,4-9.4,8.3c-0.3,1.1-0.4,2.3-0.4,3.5v12.5h-2.2V43.4z"/>
		<path class="st1" d="M161.5,33.1h2.6v3.8h-2.6V33.1z M161.7,43.4h2.2v25.7h-2.2V43.4z"/>
		<path class="st1" d="M184.3,42.8c6.1,0,9.2,3.6,9.2,3.6l-1.3,1.8c0,0-2.9-3.3-7.9-3.3c-6,0-11,4.5-11,11.4c0,6.8,5,11.3,11,11.3
			c5.7,0,8.6-3.7,8.6-3.7l1.1,1.8c0,0-3.3,4-9.7,4c-7.3,0-13.3-5.2-13.3-13.4C171.1,48.1,177.2,42.8,184.3,42.8"/>
		<path class="st1" d="M201.2,43.4h2.2v4.9c0,1.2-0.2,2.1-0.2,2.1h0.1c1.3-4,4.2-7.2,8.2-7.2c0.8,0,1.5,0.2,1.5,0.2v2.2
			c0,0-0.6-0.1-1.2-0.1c-4,0-6.5,3.4-7.7,7.2c-0.6,1.8-0.8,3.7-0.8,5.4v11.1h-2.2V43.4z"/>
		<path class="st1" d="M229.4,42.8c7.3,0,13.3,5.8,13.3,13.3c0,7.7-6,13.6-13.3,13.6c-7.4,0-13.3-6-13.3-13.6
			C216.1,48.6,222,42.8,229.4,42.8 M229.4,67.6c6.1,0,11-5,11-11.5c0-6.4-4.9-11.2-11-11.2c-6.1,0-11.1,4.8-11.1,11.2
			C218.3,62.6,223.2,67.6,229.4,67.6"/>
		<path class="st1" d="M249.9,32.6H263c6.6,0,11.3,3.4,11.3,9.4c0,3.4-1.6,6.3-4.4,7.8v0.1c4,1.2,5.9,4.9,5.9,8.6
			c0,7.3-5.9,10.6-12.6,10.6h-13.2V32.6z M263,47.5c2.9,0,4.5-2.1,4.5-4.7c0-2.6-1.5-4.5-4.6-4.5h-6.3v9.2H263z M263.6,63.4
			c3.4,0,5.3-2.2,5.3-5.3c0-3-2-5.2-5.3-5.2h-7.1v10.5H263.6z"/>
		<path class="st1" d="M339.6,61.3c0,0,2.9,2.9,7.2,2.9c1.8,0,3.4-0.8,3.4-2.4c0-3.9-12.7-3.4-12.7-11.8c0-4.9,4.4-7.7,10-7.7
			c5.9,0,8.8,3,8.8,3l-2.4,4.8c0,0-2.4-2.3-6.4-2.3c-1.7,0-3.3,0.7-3.3,2.4c0,3.7,12.7,3.2,12.7,11.7c0,4.4-3.8,7.9-10,7.9
			c-6.5,0-10.2-3.9-10.2-3.9L339.6,61.3z"/>
		<path class="st1" d="M322.6,69.7c-8.7,0-14.1-6.3-14.1-13.7c0-8.1,5.5-13.7,13.3-13.7c7.6,0,11.6,5.5,11.6,12.5
			c0,0.8-0.1,2.5-0.1,2.5h-18.1c0.4,4.6,4,6.9,7.9,6.9h3.8c1.5,0,2.8,1.2,2.8,2.8v2.8H322.6z M326.9,52.8c-0.1-3.6-2.3-5.5-5.2-5.5
			c-3.3,0-5.7,2.1-6.3,5.5H326.9z"/>
		<path class="st1" d="M294.1,69.7c-8.7,0-14.1-6.3-14.1-13.7c0-8.1,5.5-13.7,13.3-13.7c7.6,0,11.6,5.5,11.6,12.5
			c0,0.8-0.2,2.5-0.2,2.5h-18.1c0.4,4.6,4,6.9,7.9,6.9h3.8c1.5,0,2.8,1.2,2.8,2.8v2.8H294.1z M298.4,52.8c-0.1-3.6-2.3-5.5-5.2-5.5
			c-3.3,0-5.7,2.1-6.3,5.5H298.4z"/>
	</g>
</g>
</svg>
