<svg xmlns="http://www.w3.org/2000/svg" width="76" height="76" viewBox="0 0 76 76">
  <g id="Raggruppa_14" data-name="Raggruppa 14" transform="translate(-1398 -2750)">
    <path id="Tracciato_104" data-name="Tracciato 104" d="M82,71.444A10.554,10.554,0,0,1,71.444,82H16.556A10.555,10.555,0,0,1,6,71.444V16.556A10.555,10.555,0,0,1,16.556,6H71.444A10.554,10.554,0,0,1,82,16.556Z" transform="translate(1392 2744)" fill="#d0d0d0"/>
    <path id="icons8-twitter" d="M51.836,20.367a10.507,10.507,0,0,0-10.5,10.5c0,1.085.363,1.81.363,2.532a29.37,29.37,0,0,1-21.35-10.852A8.3,8.3,0,0,0,18.9,27.608c0,3.618,1.812,6.521,4.709,9.055A18.1,18.1,0,0,1,18.9,35.211,10.457,10.457,0,0,0,27.22,45.346a7.94,7.94,0,0,1-2.895.363,15.9,15.9,0,0,0-1.814-.363,10.552,10.552,0,0,0,9.772,7.232,23.408,23.408,0,0,1-13.03,4.346H16.722a30.406,30.406,0,0,0,15.924,4.709c19.182,0,29.679-15.927,29.679-29.679V30.5A24.43,24.43,0,0,0,67.4,25.068a19.805,19.805,0,0,1-6.152,1.814,10.575,10.575,0,0,0,4.7-5.789,17.567,17.567,0,0,1-6.515,2.532A9.851,9.851,0,0,0,51.836,20.367Z" transform="translate(1395 2747)" fill="#e2e2e1"/>
  </g>
</svg>
